# xmcd
#
# Track frame offsets:
#	150
#	19735
#	38712
#	59670
#	74276
#	97139
#	112238
#	124650
#	143715
#	165061
#	184446
#	202777
#	223813
#	241561
#	276143
#	293927
#	310336
#
# Disc length: 4430 seconds
#
# Revision: 0
# Processed by: cddbd v1.5.2PL0 Copyright (c) Steve Scherf et al.
# Submitted via: EasyCDDAExtractor 2010.4.0.0
#
DISCID=fe114c11
DTITLE=Various Artist - The Best of the 80's Lentos
DYEAR=2005
DGENRE=pop
TTITLE0=Boston - Amanda
TTITLE1=Joe esposito - Mujer, mujer, mujer
TTITLE2=Styx - Muestrame el camino
TTITLE3=Irene cara - estoy aqui sola
TTITLE4=Rockwell - Cuchillo
TTITLE5=Roger Daltrey - Sin tu amor
TTITLE6=Paul McCrane - esta bien si te llamo mia?
TTITLE7=Peter Frampton - Estoy en vos
TTITLE8=Level 42 - Se termino
TTITLE9=Michael Jackson - Un dia en tu vida
TTITLE10=Blind date - Your heart keep burning
TTITLE11=Starship - We built this city
TTITLE12=Chyp-Notic - I can't get enough
TTITLE13=Gazebo - I like Chopin
TTITLE14=Toto - Te cuidare
TTITLE15=The Outfield - Todo el amor del mundo
TTITLE16=Gloria Estefan - Here we are
EXTD=
EXTT0=
EXTT1=
EXTT2=
EXTT3=
EXTT4=
EXTT5=
EXTT6=
EXTT7=
EXTT8=
EXTT9=
EXTT10=
EXTT11=
EXTT12=
EXTT13=
EXTT14=
EXTT15=
EXTT16=
PLAYORDER=
